<svg width="100" height="100" viewBox="0 0 100 100" fill="none" xmlns="http://www.w3.org/2000/svg">
    <rect width="100" height="100" rx="50" fill="#DCE1F0" />
    <g clip-path="url(#clip0_3728_13003)">
        <path
            d="M50 51.8337C54.3927 51.8337 58.3875 53.106 61.3263 54.8972C62.793 55.7955 64.047 56.8497 64.9527 57.9955C65.8437 59.1248 66.5 60.4742 66.5 61.917C66.5 63.4662 65.7465 64.6872 64.6612 65.558C63.6345 66.383 62.2797 66.9293 60.8405 67.3106C57.9475 68.0752 54.0865 68.3337 50 68.3337C45.9135 68.3337 42.0525 68.077 39.1595 67.3106C37.7203 66.9293 36.3655 66.383 35.3388 65.558C34.2517 64.6853 33.5 63.4662 33.5 61.917C33.5 60.4742 34.1563 59.1248 35.0473 57.9955C35.953 56.8497 37.2052 55.7955 38.6737 54.8972C41.6125 53.106 45.6092 51.8337 50 51.8337ZM50 31.667C52.4312 31.667 54.7627 32.6328 56.4818 34.3518C58.2009 36.0709 59.1667 38.4025 59.1667 40.8337C59.1667 43.2648 58.2009 45.5964 56.4818 47.3155C54.7627 49.0346 52.4312 50.0003 50 50.0003C47.5688 50.0003 45.2373 49.0346 43.5182 47.3155C41.7991 45.5964 40.8333 43.2648 40.8333 40.8337C40.8333 38.4025 41.7991 36.0709 43.5182 34.3518C45.2373 32.6328 47.5688 31.667 50 31.667Z"
            fill="#18264D" fill-opacity="0.3" />
    </g>
    <defs>
        <clipPath id="clip0_3728_13003">
            <rect width="44" height="44" fill="white" transform="translate(28 28)" />
        </clipPath>
    </defs>
</svg>
